<svg width="1200" height="800" viewBox="0 0 1200 800" fill="none" xmlns="http://www.w3.org/2000/svg">
  <!-- Background gradient with brand colors -->
  <defs>
    <linearGradient id="bgGradient" x1="0%" y1="0%" x2="100%" y2="100%">
      <stop offset="0%" style="stop-color:#ffd7f1;stop-opacity:1" />
      <stop offset="50%" style="stop-color:#fed5f0;stop-opacity:1" />
      <stop offset="100%" style="stop-color:#ffffff;stop-opacity:1" />
    </linearGradient>
    <linearGradient id="flowerGradient" x1="0%" y1="0%" x2="100%" y2="100%">
      <stop offset="0%" style="stop-color:#4b4e6e;stop-opacity:0.3" />
      <stop offset="100%" style="stop-color:#2d3960;stop-opacity:0.2" />
    </linearGradient>
    <linearGradient id="accentGradient" x1="0%" y1="0%" x2="100%" y2="100%">
      <stop offset="0%" style="stop-color:#0c265a;stop-opacity:0.1" />
      <stop offset="100%" style="stop-color:#2d3960;stop-opacity:0.05" />
    </linearGradient>
  </defs>
  
  <!-- Main background -->
  <rect width="1200" height="800" fill="url(#bgGradient)"/>
  
  <!-- Decorative flower elements scattered -->
  <g fill="url(#flowerGradient)">
    <!-- Large flowers -->
    <g transform="translate(150,120) scale(1.5)">
      <path d="M20,20 C15,15 15,5 20,0 C25,5 25,15 20,20 Z" fill="#4b4e6e" opacity="0.3"/>
      <path d="M20,20 C15,25 5,25 0,20 C5,15 15,15 20,20 Z" fill="#4b4e6e" opacity="0.3"/>
      <path d="M20,20 C25,25 25,35 20,40 C15,35 15,25 20,20 Z" fill="#4b4e6e" opacity="0.3"/>
      <path d="M20,20 C25,15 35,15 40,20 C35,25 25,25 20,20 Z" fill="#4b4e6e" opacity="0.3"/>
      <circle cx="20" cy="20" r="5" fill="#2d3960" opacity="0.4"/>
    </g>
    
    <g transform="translate(900,200) scale(1.2)">
      <path d="M20,20 C15,15 15,5 20,0 C25,5 25,15 20,20 Z" fill="#4b4e6e" opacity="0.25"/>
      <path d="M20,20 C15,25 5,25 0,20 C5,15 15,15 20,20 Z" fill="#4b4e6e" opacity="0.25"/>
      <path d="M20,20 C25,25 25,35 20,40 C15,35 15,25 20,20 Z" fill="#4b4e6e" opacity="0.25"/>
      <path d="M20,20 C25,15 35,15 40,20 C35,25 25,25 20,20 Z" fill="#4b4e6e" opacity="0.25"/>
      <circle cx="20" cy="20" r="5" fill="#2d3960" opacity="0.3"/>
    </g>
    
    <!-- Medium flowers -->
    <g transform="translate(300,600) scale(1.0)">
      <path d="M15,15 C12,12 12,8 15,5 C18,8 18,12 15,15 Z" fill="#4b4e6e" opacity="0.2"/>
      <path d="M15,15 C12,18 8,18 5,15 C8,12 12,12 15,15 Z" fill="#4b4e6e" opacity="0.2"/>
      <path d="M15,15 C18,18 18,22 15,25 C12,22 12,18 15,15 Z" fill="#4b4e6e" opacity="0.2"/>
      <path d="M15,15 C18,12 22,12 25,15 C22,18 18,18 15,15 Z" fill="#4b4e6e" opacity="0.2"/>
      <circle cx="15" cy="15" r="3" fill="#2d3960" opacity="0.3"/>
    </g>
    
    <g transform="translate(750,500) scale(0.8)">
      <path d="M15,15 C12,12 12,8 15,5 C18,8 18,12 15,15 Z" fill="#4b4e6e" opacity="0.2"/>
      <path d="M15,15 C12,18 8,18 5,15 C8,12 12,12 15,15 Z" fill="#4b4e6e" opacity="0.2"/>
      <path d="M15,15 C18,18 18,22 15,25 C12,22 12,18 15,15 Z" fill="#4b4e6e" opacity="0.2"/>
      <path d="M15,15 C18,12 22,12 25,15 C22,18 18,18 15,15 Z" fill="#4b4e6e" opacity="0.2"/>
      <circle cx="15" cy="15" r="3" fill="#2d3960" opacity="0.3"/>
    </g>
    
    <!-- Small flowers -->
    <g transform="translate(600,150) scale(0.6)">
      <path d="M10,10 C8,8 8,6 10,4 C12,6 12,8 10,10 Z" fill="#4b4e6e" opacity="0.15"/>
      <path d="M10,10 C8,12 6,12 4,10 C6,8 8,8 10,10 Z" fill="#4b4e6e" opacity="0.15"/>
      <path d="M10,10 C12,12 12,14 10,16 C8,14 8,12 10,10 Z" fill="#4b4e6e" opacity="0.15"/>
      <path d="M10,10 C12,8 14,8 16,10 C14,12 12,12 10,10 Z" fill="#4b4e6e" opacity="0.15"/>
      <circle cx="10" cy="10" r="2" fill="#2d3960" opacity="0.2"/>
    </g>
    
    <g transform="translate(1000,400) scale(0.6)">
      <path d="M10,10 C8,8 8,6 10,4 C12,6 12,8 10,10 Z" fill="#4b4e6e" opacity="0.15"/>
      <path d="M10,10 C8,12 6,12 4,10 C6,8 8,8 10,10 Z" fill="#4b4e6e" opacity="0.15"/>
      <path d="M10,10 C12,12 12,14 10,16 C8,14 8,12 10,10 Z" fill="#4b4e6e" opacity="0.15"/>
      <path d="M10,10 C12,8 14,8 16,10 C14,12 12,12 10,10 Z" fill="#4b4e6e" opacity="0.15"/>
      <circle cx="10" cy="10" r="2" fill="#2d3960" opacity="0.2"/>
    </g>
    
    <g transform="translate(80,450) scale(0.6)">
      <path d="M10,10 C8,8 8,6 10,4 C12,6 12,8 10,10 Z" fill="#4b4e6e" opacity="0.15"/>
      <path d="M10,10 C8,12 6,12 4,10 C6,8 8,8 10,10 Z" fill="#4b4e6e" opacity="0.15"/>
      <path d="M10,10 C12,12 12,14 10,16 C8,14 8,12 10,10 Z" fill="#4b4e6e" opacity="0.15"/>
      <path d="M10,10 C12,8 14,8 16,10 C14,12 12,12 10,10 Z" fill="#4b4e6e" opacity="0.15"/>
      <circle cx="10" cy="10" r="2" fill="#2d3960" opacity="0.2"/>
    </g>
  </g>
  
  <!-- Soft wave patterns with brand colors -->
  <path d="M0,600 Q300,550 600,600 T1200,580 L1200,800 L0,800 Z" fill="#ffd7f1" opacity="0.5"/>
  <path d="M0,650 Q400,620 800,650 T1200,630 L1200,800 L0,800 Z" fill="#fed5f0" opacity="0.3"/>
</svg>